<svg xmlns="http://www.w3.org/2000/svg" viewBox="0 0 1210 596" font-family="Segoe UI, Arial, sans-serif"><rect width="1210" height="596" fill="#0b1220"/><rect x="0" y="0" width="150" height="596" fill="#0f1830"/><circle cx="34" cy="42" r="12" fill="#00b4d8"/><text x="56" y="47" fill="#e6edf7" font-size="18" font-weight="700">Soft<tspan fill="#00b4d8">Tech</tspan></text><rect x="16" y="78" width="118" height="36" rx="8" fill="#3b6ef5" opacity="0.18"/><rect x="30" y="92" width="14" height="14" rx="3" fill="#00b4d8" opacity="1"/><text x="54" y="104" fill="#e6edf7" font-size="14">Overview</text><rect x="30" y="138" width="14" height="14" rx="3" fill="#7c8aa5" opacity="0.6"/><text x="54" y="150" fill="#7c8aa5" font-size="14">Ponds</text><rect x="30" y="184" width="14" height="14" rx="3" fill="#7c8aa5" opacity="0.6"/><text x="54" y="196" fill="#7c8aa5" font-size="14">Feeding</text><rect x="30" y="230" width="14" height="14" rx="3" fill="#7c8aa5" opacity="0.6"/><text x="54" y="242" fill="#7c8aa5" font-size="14">Water Quality</text><rect x="30" y="276" width="14" height="14" rx="3" fill="#7c8aa5" opacity="0.6"/><text x="54" y="288" fill="#7c8aa5" font-size="14">Reports</text><text x="182" y="52" fill="#e6edf7" font-size="26" font-weight="800">aqualog</text><text x="182" y="76" fill="#7c8aa5" font-size="14">Aquaculture management software</text><rect x="1060" y="30" width="120" height="34" rx="17" fill="#131d33"/><circle cx="1080" cy="47" r="9" fill="#00b4d8"/><text x="1096" y="52" fill="#7c8aa5" font-size="13">Live</text><rect x="182" y="100" width="230" height="92" rx="12" fill="#131d33"/><text x="200" y="128" fill="#7c8aa5" font-size="13">Active Ponds</text><text x="200" y="162" fill="#e6edf7" font-size="28" font-weight="800">46</text><text x="200" y="182" fill="#28c76f" font-size="12">+3 this season</text><rect x="434" y="100" width="230" height="92" rx="12" fill="#131d33"/><text x="452" y="128" fill="#7c8aa5" font-size="13">Avg Water Score</text><text x="452" y="162" fill="#e6edf7" font-size="28" font-weight="800">92%</text><text x="452" y="182" fill="#28c76f" font-size="12">+2.1% WoW</text><rect x="686" y="100" width="230" height="92" rx="12" fill="#131d33"/><text x="704" y="128" fill="#7c8aa5" font-size="13">Stock Health</text><text x="704" y="162" fill="#e6edf7" font-size="28" font-weight="800">Good</text><text x="704" y="182" fill="#28c76f" font-size="12">stable</text><rect x="182" y="210" width="560" height="356" rx="12" fill="#131d33"/><text x="200" y="238" fill="#e6edf7" font-size="15" font-weight="700">Water Quality Index</text><path d="M207,486 L264,536 L320,436 L377,511 L434,385 L490,411 L547,335 L604,360 L660,260 L717,285 L717,536 L207,536 Z" fill="#28c76f" opacity="0.12"/><path d="M207,486 L264,536 L320,436 L377,511 L434,385 L490,411 L547,335 L604,360 L660,260 L717,285" fill="none" stroke="#28c76f" stroke-width="3"/><circle cx="207" cy="486" r="3.5" fill="#28c76f"/><circle cx="264" cy="536" r="3.5" fill="#28c76f"/><circle cx="320" cy="436" r="3.5" fill="#28c76f"/><circle cx="377" cy="511" r="3.5" fill="#28c76f"/><circle cx="434" cy="385" r="3.5" fill="#28c76f"/><circle cx="490" cy="411" r="3.5" fill="#28c76f"/><circle cx="547" cy="335" r="3.5" fill="#28c76f"/><circle cx="604" cy="360" r="3.5" fill="#28c76f"/><circle cx="660" cy="260" r="3.5" fill="#28c76f"/><circle cx="717" cy="285" r="3.5" fill="#28c76f"/><rect x="766" y="210" width="414" height="356" rx="12" fill="#131d33"/><text x="784" y="238" fill="#e6edf7" font-size="15" font-weight="700">Pond Status</text><text x="784" y="262" fill="#7c8aa5" font-size="13">Pond A-12</text><text x="994" y="262" fill="#e6edf7" font-size="13">pH 7.4 / DO 6.8</text><rect x="1094" y="249" width="70" height="20" rx="10" fill="#28c76f" opacity="0.2"/><text x="1129" y="262" fill="#28c76f" font-size="11" text-anchor="middle">ok</text><line x1="782" y1="274" x2="1164" y2="274" stroke="#22304d"/><text x="784" y="296" fill="#7c8aa5" font-size="13">Pond B-07</text><text x="994" y="296" fill="#e6edf7" font-size="13">pH 7.1 / DO 6.2</text><rect x="1094" y="283" width="70" height="20" rx="10" fill="#28c76f" opacity="0.2"/><text x="1129" y="296" fill="#28c76f" font-size="11" text-anchor="middle">ok</text><line x1="782" y1="308" x2="1164" y2="308" stroke="#22304d"/><text x="784" y="330" fill="#7c8aa5" font-size="13">Pond C-03</text><text x="994" y="330" fill="#e6edf7" font-size="13">pH 6.6 / DO 5.1</text><rect x="1094" y="317" width="70" height="20" rx="10" fill="#3b6ef5" opacity="0.2"/><text x="1129" y="330" fill="#3b6ef5" font-size="11" text-anchor="middle">low</text><line x1="782" y1="342" x2="1164" y2="342" stroke="#22304d"/><text x="784" y="364" fill="#7c8aa5" font-size="13">Pond D-18</text><text x="994" y="364" fill="#e6edf7" font-size="13">pH 7.3 / DO 6.9</text><rect x="1094" y="351" width="70" height="20" rx="10" fill="#28c76f" opacity="0.2"/><text x="1129" y="364" fill="#28c76f" font-size="11" text-anchor="middle">ok</text><line x1="782" y1="376" x2="1164" y2="376" stroke="#22304d"/><text x="784" y="398" fill="#7c8aa5" font-size="13">Pond E-22</text><text x="994" y="398" fill="#e6edf7" font-size="13">pH 7.0 / DO 5.9</text><rect x="1094" y="385" width="70" height="20" rx="10" fill="#00b4d8" opacity="0.2"/><text x="1129" y="398" fill="#00b4d8" font-size="11" text-anchor="middle">pending</text><line x1="782" y1="410" x2="1164" y2="410" stroke="#22304d"/></svg>