<svg xmlns="http://www.w3.org/2000/svg" viewBox="0 0 1210 596" font-family="Segoe UI, Arial, sans-serif"><rect width="1210" height="596" fill="#0b1220"/><rect x="0" y="0" width="150" height="596" fill="#0f1830"/><circle cx="34" cy="42" r="12" fill="#00b4d8"/><text x="56" y="47" fill="#e6edf7" font-size="18" font-weight="700">Soft<tspan fill="#00b4d8">Tech</tspan></text><rect x="16" y="78" width="118" height="36" rx="8" fill="#3b6ef5" opacity="0.18"/><rect x="30" y="92" width="14" height="14" rx="3" fill="#00b4d8" opacity="1"/><text x="54" y="104" fill="#e6edf7" font-size="14">Overview</text><rect x="30" y="138" width="14" height="14" rx="3" fill="#7c8aa5" opacity="0.6"/><text x="54" y="150" fill="#7c8aa5" font-size="14">Analytics</text><rect x="30" y="184" width="14" height="14" rx="3" fill="#7c8aa5" opacity="0.6"/><text x="54" y="196" fill="#7c8aa5" font-size="14">Workflows</text><rect x="30" y="230" width="14" height="14" rx="3" fill="#7c8aa5" opacity="0.6"/><text x="54" y="242" fill="#7c8aa5" font-size="14">Reports</text><rect x="30" y="276" width="14" height="14" rx="3" fill="#7c8aa5" opacity="0.6"/><text x="54" y="288" fill="#7c8aa5" font-size="14">Settings</text><text x="182" y="52" fill="#e6edf7" font-size="26" font-weight="800">LedgerFlow</text><text x="182" y="76" fill="#7c8aa5" font-size="14">Finance &amp; accounting platform</text><rect x="1060" y="30" width="120" height="34" rx="17" fill="#131d33"/><circle cx="1080" cy="47" r="9" fill="#00b4d8"/><text x="1096" y="52" fill="#7c8aa5" font-size="13">Live</text><rect x="182" y="100" width="230" height="92" rx="12" fill="#131d33"/><text x="200" y="128" fill="#7c8aa5" font-size="13">Cash Balance</text><text x="200" y="162" fill="#e6edf7" font-size="28" font-weight="800">$842K</text><text x="200" y="182" fill="#28c76f" font-size="12">+5.7% MoM</text><rect x="434" y="100" width="230" height="92" rx="12" fill="#131d33"/><text x="452" y="128" fill="#7c8aa5" font-size="13">Invoices Paid</text><text x="452" y="162" fill="#e6edf7" font-size="28" font-weight="800">1,932</text><text x="452" y="182" fill="#28c76f" font-size="12">+14% MoM</text><rect x="686" y="100" width="230" height="92" rx="12" fill="#131d33"/><text x="704" y="128" fill="#7c8aa5" font-size="13">Reconciled</text><text x="704" y="162" fill="#e6edf7" font-size="28" font-weight="800">99.2%</text><text x="704" y="182" fill="#28c76f" font-size="12">+0.4% MoM</text><rect x="182" y="210" width="560" height="356" rx="12" fill="#131d33"/><text x="200" y="238" fill="#e6edf7" font-size="15" font-weight="700">Monthly Growth</text><rect x="212.0" y="441.0" width="31.25" height="95.0" rx="4" fill="#28c76f"/><rect x="274.5" y="393.5" width="31.25" height="142.5" rx="4" fill="#28c76f"/><rect x="337.0" y="415.6666666666667" width="31.25" height="120.33333333333333" rx="4" fill="#28c76f"/><rect x="399.5" y="346.0" width="31.25" height="190.0" rx="4" fill="#28c76f"/><rect x="462.0" y="371.33333333333337" width="31.25" height="164.66666666666666" rx="4" fill="#28c76f"/><rect x="524.5" y="314.33333333333337" width="31.25" height="221.66666666666666" rx="4" fill="#28c76f"/><rect x="587.0" y="327.0" width="31.25" height="209.0" rx="4" fill="#28c76f"/><rect x="649.5" y="270.0" width="31.25" height="266.0" rx="4" fill="#28c76f"/><rect x="766" y="210" width="414" height="356" rx="12" fill="#131d33"/><text x="784" y="238" fill="#e6edf7" font-size="15" font-weight="700">Recent Invoices</text><text x="784" y="262" fill="#7c8aa5" font-size="13">Acme Corp</text><text x="994" y="262" fill="#e6edf7" font-size="13">$12,400</text><rect x="1094" y="249" width="70" height="20" rx="10" fill="#28c76f" opacity="0.2"/><text x="1129" y="262" fill="#28c76f" font-size="11" text-anchor="middle">ok</text><line x1="782" y1="274" x2="1164" y2="274" stroke="#22304d"/><text x="784" y="296" fill="#7c8aa5" font-size="13">Northwind</text><text x="994" y="296" fill="#e6edf7" font-size="13">$8,120</text><rect x="1094" y="283" width="70" height="20" rx="10" fill="#00b4d8" opacity="0.2"/><text x="1129" y="296" fill="#00b4d8" font-size="11" text-anchor="middle">pending</text><line x1="782" y1="308" x2="1164" y2="308" stroke="#22304d"/><text x="784" y="330" fill="#7c8aa5" font-size="13">Globex</text><text x="994" y="330" fill="#e6edf7" font-size="13">$4,900</text><rect x="1094" y="317" width="70" height="20" rx="10" fill="#28c76f" opacity="0.2"/><text x="1129" y="330" fill="#28c76f" font-size="11" text-anchor="middle">ok</text><line x1="782" y1="342" x2="1164" y2="342" stroke="#22304d"/><text x="784" y="364" fill="#7c8aa5" font-size="13">Initech</text><text x="994" y="364" fill="#e6edf7" font-size="13">$2,300</text><rect x="1094" y="351" width="70" height="20" rx="10" fill="#3b6ef5" opacity="0.2"/><text x="1129" y="364" fill="#3b6ef5" font-size="11" text-anchor="middle">low</text><line x1="782" y1="376" x2="1164" y2="376" stroke="#22304d"/><text x="784" y="398" fill="#7c8aa5" font-size="13">Umbrella</text><text x="994" y="398" fill="#e6edf7" font-size="13">$9,700</text><rect x="1094" y="385" width="70" height="20" rx="10" fill="#28c76f" opacity="0.2"/><text x="1129" y="398" fill="#28c76f" font-size="11" text-anchor="middle">ok</text><line x1="782" y1="410" x2="1164" y2="410" stroke="#22304d"/></svg>