<svg xmlns="http://www.w3.org/2000/svg" viewBox="0 0 1210 596" font-family="Segoe UI, Arial, sans-serif"><rect width="1210" height="596" fill="#0b1220"/><rect x="0" y="0" width="150" height="596" fill="#0f1830"/><circle cx="34" cy="42" r="12" fill="#00b4d8"/><text x="56" y="47" fill="#e6edf7" font-size="18" font-weight="700">Soft<tspan fill="#00b4d8">Tech</tspan></text><rect x="16" y="78" width="118" height="36" rx="8" fill="#3b6ef5" opacity="0.18"/><rect x="30" y="92" width="14" height="14" rx="3" fill="#00b4d8" opacity="1"/><text x="54" y="104" fill="#e6edf7" font-size="14">Overview</text><rect x="30" y="138" width="14" height="14" rx="3" fill="#7c8aa5" opacity="0.6"/><text x="54" y="150" fill="#7c8aa5" font-size="14">Analytics</text><rect x="30" y="184" width="14" height="14" rx="3" fill="#7c8aa5" opacity="0.6"/><text x="54" y="196" fill="#7c8aa5" font-size="14">Workflows</text><rect x="30" y="230" width="14" height="14" rx="3" fill="#7c8aa5" opacity="0.6"/><text x="54" y="242" fill="#7c8aa5" font-size="14">Reports</text><rect x="30" y="276" width="14" height="14" rx="3" fill="#7c8aa5" opacity="0.6"/><text x="54" y="288" fill="#7c8aa5" font-size="14">Settings</text><text x="182" y="52" fill="#e6edf7" font-size="26" font-weight="800">RetailOS</text><text x="182" y="76" fill="#7c8aa5" font-size="14">Headless e-commerce platform</text><rect x="1060" y="30" width="120" height="34" rx="17" fill="#131d33"/><circle cx="1080" cy="47" r="9" fill="#00b4d8"/><text x="1096" y="52" fill="#7c8aa5" font-size="13">Live</text><rect x="182" y="100" width="230" height="92" rx="12" fill="#131d33"/><text x="200" y="128" fill="#7c8aa5" font-size="13">Revenue (24h)</text><text x="200" y="162" fill="#e6edf7" font-size="28" font-weight="800">$68.4K</text><text x="200" y="182" fill="#28c76f" font-size="12">+18% DoD</text><rect x="434" y="100" width="230" height="92" rx="12" fill="#131d33"/><text x="452" y="128" fill="#7c8aa5" font-size="13">Orders</text><text x="452" y="162" fill="#e6edf7" font-size="28" font-weight="800">2,146</text><text x="452" y="182" fill="#28c76f" font-size="12">+9.6% DoD</text><rect x="686" y="100" width="230" height="92" rx="12" fill="#131d33"/><text x="704" y="128" fill="#7c8aa5" font-size="13">Conversion</text><text x="704" y="162" fill="#e6edf7" font-size="28" font-weight="800">4.8%</text><text x="704" y="182" fill="#28c76f" font-size="12">+0.6% DoD</text><rect x="182" y="210" width="560" height="356" rx="12" fill="#131d33"/><text x="200" y="238" fill="#e6edf7" font-size="15" font-weight="700">Monthly Growth</text><rect x="212.0" y="424.0" width="31.25" height="112.0" rx="4" fill="#00b4d8"/><rect x="274.5" y="382.0" width="31.25" height="154.0" rx="4" fill="#00b4d8"/><rect x="337.0" y="401.6" width="31.25" height="134.4" rx="4" fill="#00b4d8"/><rect x="399.5" y="345.6" width="31.25" height="190.4" rx="4" fill="#00b4d8"/><rect x="462.0" y="368.0" width="31.25" height="168.0" rx="4" fill="#00b4d8"/><rect x="524.5" y="306.4" width="31.25" height="229.6" rx="4" fill="#00b4d8"/><rect x="587.0" y="323.2" width="31.25" height="212.8" rx="4" fill="#00b4d8"/><rect x="649.5" y="270.0" width="31.25" height="266.0" rx="4" fill="#00b4d8"/><rect x="766" y="210" width="414" height="356" rx="12" fill="#131d33"/><text x="784" y="238" fill="#e6edf7" font-size="15" font-weight="700">Sales Channels</text><path d="M973,402 L973,347 A55,55 0 0 1 980,457 Z" fill="#00b4d8"/><path d="M973,402 L980,457 A55,55 0 0 1 923,379 Z" fill="#3b6ef5"/><path d="M973,402 L923,379 A55,55 0 0 1 953,351 Z" fill="#28c76f"/><path d="M973,402 L953,351 A55,55 0 0 1 973,347 Z" fill="#7c8aa5"/><circle cx="973" cy="402" r="30" fill="#131d33"/></svg>