<svg xmlns="http://www.w3.org/2000/svg" viewBox="0 0 1210 596" font-family="Segoe UI, Arial, sans-serif"><rect width="1210" height="596" fill="#0b1220"/><rect x="0" y="0" width="150" height="596" fill="#0f1830"/><circle cx="34" cy="42" r="12" fill="#00b4d8"/><text x="56" y="47" fill="#e6edf7" font-size="18" font-weight="700">Soft<tspan fill="#00b4d8">Tech</tspan></text><rect x="16" y="78" width="118" height="36" rx="8" fill="#3b6ef5" opacity="0.18"/><rect x="30" y="92" width="14" height="14" rx="3" fill="#00b4d8" opacity="1"/><text x="54" y="104" fill="#e6edf7" font-size="14">Overview</text><rect x="30" y="138" width="14" height="14" rx="3" fill="#7c8aa5" opacity="0.6"/><text x="54" y="150" fill="#7c8aa5" font-size="14">Analytics</text><rect x="30" y="184" width="14" height="14" rx="3" fill="#7c8aa5" opacity="0.6"/><text x="54" y="196" fill="#7c8aa5" font-size="14">Workflows</text><rect x="30" y="230" width="14" height="14" rx="3" fill="#7c8aa5" opacity="0.6"/><text x="54" y="242" fill="#7c8aa5" font-size="14">Reports</text><rect x="30" y="276" width="14" height="14" rx="3" fill="#7c8aa5" opacity="0.6"/><text x="54" y="288" fill="#7c8aa5" font-size="14">Settings</text><text x="182" y="52" fill="#e6edf7" font-size="26" font-weight="800">SoftexEdge Suite</text><text x="182" y="76" fill="#7c8aa5" font-size="14">Automation &amp; analytics workspace</text><rect x="1060" y="30" width="120" height="34" rx="17" fill="#131d33"/><circle cx="1080" cy="47" r="9" fill="#00b4d8"/><text x="1096" y="52" fill="#7c8aa5" font-size="13">Live</text><rect x="182" y="100" width="230" height="92" rx="12" fill="#131d33"/><text x="200" y="128" fill="#7c8aa5" font-size="13">Active Workflows</text><text x="200" y="162" fill="#e6edf7" font-size="28" font-weight="800">1,284</text><text x="200" y="182" fill="#28c76f" font-size="12">+12.4% MoM</text><rect x="434" y="100" width="230" height="92" rx="12" fill="#131d33"/><text x="452" y="128" fill="#7c8aa5" font-size="13">Tasks Automated</text><text x="452" y="162" fill="#e6edf7" font-size="28" font-weight="800">46.2K</text><text x="452" y="182" fill="#28c76f" font-size="12">+8.1% MoM</text><rect x="686" y="100" width="230" height="92" rx="12" fill="#131d33"/><text x="704" y="128" fill="#7c8aa5" font-size="13">Hours Saved</text><text x="704" y="162" fill="#e6edf7" font-size="28" font-weight="800">3,910</text><text x="704" y="182" fill="#28c76f" font-size="12">+21% MoM</text><rect x="182" y="210" width="560" height="356" rx="12" fill="#131d33"/><text x="200" y="238" fill="#e6edf7" font-size="15" font-weight="700">Automation Throughput</text><path d="M207,536 L264,479 L320,505 L377,421 L434,452 L490,360 L547,390 L604,306 L660,329 L717,260 L717,536 L207,536 Z" fill="#00b4d8" opacity="0.12"/><path d="M207,536 L264,479 L320,505 L377,421 L434,452 L490,360 L547,390 L604,306 L660,329 L717,260" fill="none" stroke="#00b4d8" stroke-width="3"/><circle cx="207" cy="536" r="3.5" fill="#00b4d8"/><circle cx="264" cy="479" r="3.5" fill="#00b4d8"/><circle cx="320" cy="505" r="3.5" fill="#00b4d8"/><circle cx="377" cy="421" r="3.5" fill="#00b4d8"/><circle cx="434" cy="452" r="3.5" fill="#00b4d8"/><circle cx="490" cy="360" r="3.5" fill="#00b4d8"/><circle cx="547" cy="390" r="3.5" fill="#00b4d8"/><circle cx="604" cy="306" r="3.5" fill="#00b4d8"/><circle cx="660" cy="329" r="3.5" fill="#00b4d8"/><circle cx="717" cy="260" r="3.5" fill="#00b4d8"/><rect x="766" y="210" width="414" height="356" rx="12" fill="#131d33"/><text x="784" y="238" fill="#e6edf7" font-size="15" font-weight="700">Workflow Mix</text><path d="M973,402 L973,347 A55,55 0 0 1 999,450 Z" fill="#00b4d8"/><path d="M973,402 L999,450 A55,55 0 0 1 923,425 Z" fill="#3b6ef5"/><path d="M973,402 L923,425 A55,55 0 0 1 935,362 Z" fill="#28c76f"/><path d="M973,402 L935,362 A55,55 0 0 1 973,347 Z" fill="#7c8aa5"/><circle cx="973" cy="402" r="30" fill="#131d33"/></svg>