<svg xmlns="http://www.w3.org/2000/svg" viewBox="0 0 1210 596" font-family="Segoe UI, Arial, sans-serif"><rect width="1210" height="596" fill="#0b1220"/><rect x="0" y="0" width="150" height="596" fill="#0f1830"/><circle cx="34" cy="42" r="12" fill="#00b4d8"/><text x="56" y="47" fill="#e6edf7" font-size="18" font-weight="700">Soft<tspan fill="#00b4d8">Tech</tspan></text><rect x="16" y="78" width="118" height="36" rx="8" fill="#3b6ef5" opacity="0.18"/><rect x="30" y="92" width="14" height="14" rx="3" fill="#00b4d8" opacity="1"/><text x="54" y="104" fill="#e6edf7" font-size="14">Live Map</text><rect x="30" y="138" width="14" height="14" rx="3" fill="#7c8aa5" opacity="0.6"/><text x="54" y="150" fill="#7c8aa5" font-size="14">Orders</text><rect x="30" y="184" width="14" height="14" rx="3" fill="#7c8aa5" opacity="0.6"/><text x="54" y="196" fill="#7c8aa5" font-size="14">Fleet</text><rect x="30" y="230" width="14" height="14" rx="3" fill="#7c8aa5" opacity="0.6"/><text x="54" y="242" fill="#7c8aa5" font-size="14">Routes</text><rect x="30" y="276" width="14" height="14" rx="3" fill="#7c8aa5" opacity="0.6"/><text x="54" y="288" fill="#7c8aa5" font-size="14">Settings</text><text x="182" y="52" fill="#e6edf7" font-size="26" font-weight="800">traul</text><text x="182" y="76" fill="#7c8aa5" font-size="14">Delivery &amp; logistics app</text><rect x="1060" y="30" width="120" height="34" rx="17" fill="#131d33"/><circle cx="1080" cy="47" r="9" fill="#00b4d8"/><text x="1096" y="52" fill="#7c8aa5" font-size="13">Live</text><rect x="182" y="100" width="230" height="92" rx="12" fill="#131d33"/><text x="200" y="128" fill="#7c8aa5" font-size="13">Active Deliveries</text><text x="200" y="162" fill="#e6edf7" font-size="28" font-weight="800">312</text><text x="200" y="182" fill="#28c76f" font-size="12">+11% today</text><rect x="434" y="100" width="230" height="92" rx="12" fill="#131d33"/><text x="452" y="128" fill="#7c8aa5" font-size="13">On-Time Rate</text><text x="452" y="162" fill="#e6edf7" font-size="28" font-weight="800">96.4%</text><text x="452" y="182" fill="#28c76f" font-size="12">+1.2% WoW</text><rect x="686" y="100" width="230" height="92" rx="12" fill="#131d33"/><text x="704" y="128" fill="#7c8aa5" font-size="13">Fleet Online</text><text x="704" y="162" fill="#e6edf7" font-size="28" font-weight="800">128</text><text x="704" y="182" fill="#28c76f" font-size="12">+6 riders</text><rect x="182" y="210" width="560" height="356" rx="12" fill="#131d33"/><text x="200" y="238" fill="#e6edf7" font-size="15" font-weight="700">Deliveries per Hour</text><rect x="212.0" y="411.8666666666667" width="31.25" height="124.13333333333334" rx="4" fill="#3b6ef5"/><rect x="274.5" y="373.44444444444446" width="31.25" height="162.55555555555554" rx="4" fill="#3b6ef5"/><rect x="337.0" y="388.22222222222223" width="31.25" height="147.77777777777777" rx="4" fill="#3b6ef5"/><rect x="399.5" y="335.02222222222224" width="31.25" height="200.9777777777778" rx="4" fill="#3b6ef5"/><rect x="462.0" y="358.66666666666663" width="31.25" height="177.33333333333334" rx="4" fill="#3b6ef5"/><rect x="524.5" y="305.4666666666667" width="31.25" height="230.53333333333333" rx="4" fill="#3b6ef5"/><rect x="587.0" y="323.2" width="31.25" height="212.8" rx="4" fill="#3b6ef5"/><rect x="649.5" y="270.0" width="31.25" height="266.0" rx="4" fill="#3b6ef5"/><rect x="766" y="210" width="414" height="356" rx="12" fill="#131d33"/><text x="784" y="238" fill="#e6edf7" font-size="15" font-weight="700">Live Orders</text><text x="784" y="262" fill="#7c8aa5" font-size="13">#TRL-8841</text><text x="994" y="262" fill="#e6edf7" font-size="13">Downtown</text><rect x="1094" y="249" width="70" height="20" rx="10" fill="#28c76f" opacity="0.2"/><text x="1129" y="262" fill="#28c76f" font-size="11" text-anchor="middle">ok</text><line x1="782" y1="274" x2="1164" y2="274" stroke="#22304d"/><text x="784" y="296" fill="#7c8aa5" font-size="13">#TRL-8840</text><text x="994" y="296" fill="#e6edf7" font-size="13">Sector 21</text><rect x="1094" y="283" width="70" height="20" rx="10" fill="#00b4d8" opacity="0.2"/><text x="1129" y="296" fill="#00b4d8" font-size="11" text-anchor="middle">pending</text><line x1="782" y1="308" x2="1164" y2="308" stroke="#22304d"/><text x="784" y="330" fill="#7c8aa5" font-size="13">#TRL-8839</text><text x="994" y="330" fill="#e6edf7" font-size="13">Riverside</text><rect x="1094" y="317" width="70" height="20" rx="10" fill="#28c76f" opacity="0.2"/><text x="1129" y="330" fill="#28c76f" font-size="11" text-anchor="middle">ok</text><line x1="782" y1="342" x2="1164" y2="342" stroke="#22304d"/><text x="784" y="364" fill="#7c8aa5" font-size="13">#TRL-8838</text><text x="994" y="364" fill="#e6edf7" font-size="13">Uptown</text><rect x="1094" y="351" width="70" height="20" rx="10" fill="#00b4d8" opacity="0.2"/><text x="1129" y="364" fill="#00b4d8" font-size="11" text-anchor="middle">pending</text><line x1="782" y1="376" x2="1164" y2="376" stroke="#22304d"/><text x="784" y="398" fill="#7c8aa5" font-size="13">#TRL-8837</text><text x="994" y="398" fill="#e6edf7" font-size="13">Harbor</text><rect x="1094" y="385" width="70" height="20" rx="10" fill="#28c76f" opacity="0.2"/><text x="1129" y="398" fill="#28c76f" font-size="11" text-anchor="middle">ok</text><line x1="782" y1="410" x2="1164" y2="410" stroke="#22304d"/></svg>