<svg xmlns="http://www.w3.org/2000/svg" viewBox="0 0 600 600">
<defs>
<linearGradient id="g_seo" x1="0" y1="0" x2="1" y2="1">
<stop offset="0" stop-color="#00c2a8"/><stop offset="1" stop-color="#3b6ef5"/>
</linearGradient>
<radialGradient id="glow_seo" cx="0.5" cy="0.42" r="0.55">
<stop offset="0" stop-color="#00c2a8" stop-opacity="0.30"/><stop offset="1" stop-color="#00c2a8" stop-opacity="0"/>
</radialGradient>
</defs>
<rect width="600" height="600" fill="#0d1730"/>
<rect width="600" height="600" fill="url(#glow_seo)"/>
<g stroke="#20304f" stroke-width="1" opacity="0.5">
<line x1="0" y1="0" x2="0" y2="600"/><line x1="50" y1="0" x2="50" y2="600"/><line x1="100" y1="0" x2="100" y2="600"/><line x1="150" y1="0" x2="150" y2="600"/><line x1="200" y1="0" x2="200" y2="600"/><line x1="250" y1="0" x2="250" y2="600"/><line x1="300" y1="0" x2="300" y2="600"/><line x1="350" y1="0" x2="350" y2="600"/><line x1="400" y1="0" x2="400" y2="600"/><line x1="450" y1="0" x2="450" y2="600"/><line x1="500" y1="0" x2="500" y2="600"/><line x1="550" y1="0" x2="550" y2="600"/><line x1="600" y1="0" x2="600" y2="600"/>
<line x1="0" y1="0" x2="600" y2="0"/><line x1="0" y1="50" x2="600" y2="50"/><line x1="0" y1="100" x2="600" y2="100"/><line x1="0" y1="150" x2="600" y2="150"/><line x1="0" y1="200" x2="600" y2="200"/><line x1="0" y1="250" x2="600" y2="250"/><line x1="0" y1="300" x2="600" y2="300"/><line x1="0" y1="350" x2="600" y2="350"/><line x1="0" y1="400" x2="600" y2="400"/><line x1="0" y1="450" x2="600" y2="450"/><line x1="0" y1="500" x2="600" y2="500"/><line x1="0" y1="550" x2="600" y2="550"/><line x1="0" y1="600" x2="600" y2="600"/>
</g>
<circle cx="300" cy="255" r="118" fill="url(#g_seo)" opacity="0.14"/>
<circle cx="300" cy="255" r="118" fill="none" stroke="url(#g_seo)" stroke-width="2" opacity="0.5"/>
<g fill="none" stroke="url(#g_seo)" stroke-width="7" stroke-linecap="round" stroke-linejoin="round"><circle cx="285" cy="245" r="45"/><line x1="318" y1="278" x2="360" y2="320"/><polyline points="268 250 282 236 296 258 308 232"/></g>
<text x="300" y="450" text-anchor="middle" font-family="Segoe UI, Arial, sans-serif" font-size="42" font-weight="800" fill="#e6edf7">SEO & Analytics</text>
<rect x="250" y="478" width="100" height="5" rx="2.5" fill="url(#g_seo)"/>
</svg>